
<svg width="24" height="24" viewBox="0 0 24 24" fill="none" xmlns="http://www.w3.org/2000/svg">
<path fill-rule="evenodd" clip-rule="evenodd" d="M4.56122 0H6.07776C6.53272 0 6.9026 0.356225 6.91114 0.799142L6.91129 0.81481V5.57422C6.91129 6.01909 6.5467 6.38025 6.09378 6.38859L6.07776 6.38873H4.56122C4.10621 6.38873 3.73638 6.03275 3.72784 5.58989L3.72769 5.57422V0.81481C3.72769 0.369891 4.09223 0.00849194 4.5452 0.000147475L4.56122 0ZM15.4552 5.5755V2.66189H8.54478V5.5755L8.54445 5.61479C8.5227 6.90875 7.42833 7.94515 6.10008 7.94515H4.5666L4.52643 7.94483C3.20323 7.92397 2.13628 6.87459 2.13628 5.5755V2.67231L2.10117 2.67362C0.944434 2.72587 0 3.66737 0 4.82195V21.836L0.000294709 21.8716C0.0197206 23.0436 0.997029 24 2.19999 24H21.8L21.8363 23.9997C23.0329 23.9804 24 23.0103 24 21.836V4.82195L23.9997 4.78703C23.9807 3.63682 23.0247 2.70653 21.8638 2.67231V5.5755L21.8634 5.61479C21.842 6.90875 20.7617 7.94515 19.4333 7.94515H17.9002L17.86 7.94483C16.5364 7.92397 15.4552 6.87459 15.4552 5.5755ZM3.75755 11.0579H20.2005L20.2176 11.058C20.735 11.0669 21.1517 11.48 21.1517 11.9881V20.7765L21.1515 20.7932C21.1424 21.299 20.7202 21.7066 20.2006 21.7066H3.75755L3.74046 21.7064C3.22302 21.6975 2.80646 21.2844 2.80646 20.7765V11.9881L2.80661 11.9714C2.81573 11.4654 3.23789 11.0579 3.75755 11.0579ZM6.16922 17.4474H8.11328C8.41611 17.4474 8.66245 17.6831 8.67019 17.9776L8.67038 17.9919V19.8923C8.67038 20.1883 8.42885 20.429 8.12789 20.4365L8.11328 20.4367H6.16922C5.86674 20.4367 5.62035 20.2008 5.61261 19.9066L5.61242 19.8923V17.9919C5.61242 17.6955 5.854 17.4551 6.15462 17.4476L6.16922 17.4474ZM12.9723 17.4474H11.028L11.0134 17.4476C10.7128 17.4551 10.4712 17.6955 10.4712 17.9919V19.8923L10.4714 19.9066C10.4791 20.2008 10.7255 20.4367 11.028 20.4367H12.9723L12.9869 20.4365C13.2873 20.429 13.5289 20.1883 13.5289 19.8923V17.9919L13.5287 17.9776C13.5209 17.6831 13.2745 17.4474 12.9723 17.4474ZM15.8867 17.4474H17.831C18.1333 17.4474 18.3796 17.6831 18.3874 17.9776L18.3876 17.9919V19.8923C18.3876 20.1883 18.146 20.429 17.8456 20.4365L17.831 20.4367H15.8867C15.5839 20.4367 15.3376 20.2008 15.3298 19.9066L15.3296 19.8923V17.9919C15.3296 17.6955 15.5712 17.4551 15.8721 17.4476L15.8867 17.4474ZM8.11328 12.6964H6.16922L6.15462 12.6966C5.854 12.7042 5.61242 12.9448 5.61242 13.2407V15.1414L5.61261 15.1557C5.62035 15.4501 5.86674 15.6861 6.16922 15.6861H8.11328L8.12789 15.6859C8.42885 15.6783 8.67038 15.4376 8.67038 15.1414V13.2407L8.67019 13.2264C8.66245 12.9323 8.41611 12.6964 8.11328 12.6964ZM11.028 12.6964H12.9723C13.2745 12.6964 13.5209 12.9323 13.5287 13.2264L13.5289 13.2407V15.1414C13.5289 15.4376 13.2873 15.6783 12.9869 15.6859L12.9723 15.6861H11.028C10.7255 15.6861 10.4791 15.4501 10.4714 15.1557L10.4712 15.1414V13.2407C10.4712 12.9448 10.7128 12.7042 11.0134 12.6966L11.028 12.6964ZM17.8308 12.6964H15.8867L15.8721 12.6966C15.5712 12.7042 15.3296 12.9448 15.3296 13.2407V15.1414L15.3298 15.1557C15.3376 15.4501 15.5839 15.6861 15.8867 15.6861H17.8308L17.8454 15.6859C18.146 15.6783 18.3876 15.4376 18.3876 15.1414V13.2407L18.3874 13.2264C18.3796 12.9323 18.1333 12.6964 17.8308 12.6964ZM19.3972 0H17.8807L17.8646 0.000147475C17.4118 0.00849194 17.0472 0.369891 17.0472 0.81481V5.57422L17.0473 5.58989C17.0559 6.03275 17.4258 6.38873 17.8807 6.38873H19.3972L19.4132 6.38859C19.8658 6.38025 20.2304 6.01909 20.2304 5.57422V0.81481L20.2303 0.799142C20.2218 0.356225 19.8519 0 19.3972 0Z" fill="#7BAFE3"/>
</svg>
