
<svg width="24" height="24" viewBox="0 0 24 24" fill="none" xmlns="http://www.w3.org/2000/svg">
<path fill-rule="evenodd" clip-rule="evenodd" d="M12 0C18.6274 0 24 5.37258 24 12C24 18.6274 18.6274 24 12 24C5.37258 24 0 18.6274 0 12C0 5.37258 5.37258 0 12 0ZM12.874 5.48145H11.7871V6.92383C10.9212 7.00586 10.2285 7.29638 9.70898 7.79541C9.18945 8.29444 8.92969 8.92903 8.92969 9.69922C8.92969 10.1595 9.0026 10.5514 9.14844 10.875C9.29427 11.1986 9.50391 11.4834 9.77734 11.7295C10.0508 11.9756 10.3766 12.1921 10.7549 12.3789C11.1331 12.5658 11.5456 12.7503 11.9922 12.9326C12.4388 13.1149 12.751 13.3086 12.9287 13.5137C13.1064 13.7188 13.1953 14.0013 13.1953 14.3613C13.1953 14.6849 13.1064 14.939 12.9287 15.1235C12.751 15.3081 12.5072 15.4004 12.1973 15.4004C11.7734 15.4004 11.4465 15.2648 11.2163 14.9937C11.0149 14.7564 10.9017 14.424 10.8765 13.9966L10.8711 13.8076H8.56738C8.56738 14.751 8.83284 15.5109 9.36377 16.0874C9.85045 16.6159 10.5315 16.9461 11.4068 17.0783L11.6504 17.1094V18.4902H12.7373V17.1162C13.5895 17.0342 14.2629 16.7471 14.7573 16.2549C15.2518 15.7627 15.499 15.127 15.499 14.3477C15.499 13.8874 15.4215 13.4932 15.2666 13.165C15.1117 12.8369 14.8975 12.5498 14.624 12.3037C14.3506 12.0576 14.0259 11.8377 13.6499 11.644C13.3993 11.5149 13.138 11.3888 12.866 11.2658L12.2757 11.0058C11.9408 10.8493 11.6914 10.686 11.5273 10.5161C11.3359 10.3179 11.2402 10.0501 11.2402 9.71289C11.2402 9.38021 11.3234 9.1193 11.4897 8.93018C11.6561 8.74105 11.8896 8.64648 12.1904 8.64648C12.5277 8.64648 12.7874 8.77409 12.9697 9.0293C13.126 9.24805 13.2153 9.54715 13.2376 9.92662L13.2432 10.123H15.5537C15.5537 9.25716 15.3156 8.54281 14.8394 7.97998C14.4107 7.47343 13.8372 7.145 13.1189 6.99468L12.874 6.95117V5.48145Z" fill="#EBC668"/>
</svg>
