
<svg width="24" height="24" viewBox="0 0 24 24" fill="none" xmlns="http://www.w3.org/2000/svg">
<path fill-rule="evenodd" clip-rule="evenodd" d="M22.5469 2.10938C22.5469 0.946289 21.6006 0 20.4375 0C19.2744 0 18.3281 0.946289 18.3281 2.10938C18.3281 2.32837 18.3712 2.53546 18.4334 2.73413L15.9802 4.57361L15.9572 4.55851C15.6272 4.34414 15.2345 4.21875 14.8125 4.21875C13.6494 4.21875 12.7031 5.16504 12.7031 6.32812C12.7031 6.65277 12.783 6.95673 12.9146 7.23175L10.0911 10.0552L10.0635 10.0422C9.79581 9.91835 9.50132 9.84375 9.1875 9.84375C8.62024 9.84375 8.10681 10.0714 7.72742 10.4368L5.64606 9.39624L5.65016 9.36451C5.65151 9.35447 5.65289 9.34444 5.65428 9.33441C5.66308 9.27059 5.67188 9.20681 5.67188 9.14062C5.67188 7.97754 4.72559 7.03125 3.5625 7.03125C2.39941 7.03125 1.45312 7.97754 1.45312 9.14062C1.45312 10.3037 2.39941 11.25 3.5625 11.25C4.12976 11.25 4.64319 11.0224 5.02258 10.6569L7.10394 11.6975L7.09984 11.7292C7.09849 11.7393 7.09711 11.7493 7.09572 11.7593C7.08692 11.8232 7.07812 11.8869 7.07812 11.9531C7.07812 13.1162 8.02441 14.0625 9.1875 14.0625C10.3506 14.0625 11.2969 13.1162 11.2969 11.9531C11.2969 11.6285 11.217 11.3245 11.0854 11.0495L13.9089 8.22601L13.9365 8.23901C14.2042 8.3629 14.4987 8.4375 14.8125 8.4375C15.9756 8.4375 16.9219 7.49121 16.9219 6.32812C16.9219 6.10913 16.8788 5.90204 16.8166 5.70337L19.2698 3.86389L19.2928 3.87899C19.6228 4.09336 20.0156 4.21875 20.4375 4.21875C21.6006 4.21875 22.5469 3.27246 22.5469 2.10938ZM22.5467 7.71966C22.5389 7.33791 22.2274 7.03125 21.8438 7.03125H19.0312L19.0165 7.0314C18.6348 7.03923 18.3281 7.35074 18.3281 7.73438V22.5938H16.9219V11.9531L16.9217 11.9384C16.9139 11.5567 16.6024 11.25 16.2188 11.25H13.4062L13.3915 11.2502C13.0098 11.258 12.7031 11.5695 12.7031 11.9531V22.5938H11.2969V17.5781L11.2967 17.5634C11.2889 17.1817 10.9774 16.875 10.5938 16.875H7.78125L7.76653 16.8752C7.38479 16.883 7.07812 17.1945 7.07812 17.5781V22.5938H5.67188V14.7656L5.67172 14.7509C5.6639 14.3692 5.35238 14.0625 4.96875 14.0625H2.15625L2.14153 14.0627C1.75979 14.0705 1.45312 14.382 1.45312 14.7656V22.5938H0.703125L0.688406 22.5939C0.306662 22.6017 0 22.9132 0 23.2969C0 23.6854 0.314575 24 0.703125 24H23.2969L23.3116 23.9998C23.6933 23.992 24 23.6805 24 23.2969C24 22.9083 23.6854 22.5938 23.2969 22.5938H22.5469V7.73438L22.5467 7.71966Z" fill="#F29E7A"/>
</svg>
